<?xml version="1.0" ?>
<!-- Uploaded to: SVG Repo, www.svgrepo.com, Generator: SVG Repo Mixer Tools -->
<svg width="800px" height="800px" viewBox="0 0 512 512" version="1.1" xml:space="preserve" xmlns="http://www.w3.org/2000/svg" xmlns:xlink="http://www.w3.org/1999/xlink">
<style type="text/css">
	.st0{display:none;}
	.st1{display:inline;}
	.st2{fill:none;stroke:#B3B3B3;stroke-miterlimit:10;}
	.st3{fill:none;stroke:#ED1C24;stroke-miterlimit:10;}
	.st4{fill:#F9C04A;}
	.st5{fill:#FFFFFF;stroke:#000000;stroke-width:10;stroke-linecap:round;stroke-linejoin:round;stroke-miterlimit:10;}
	.st6{fill:#DEF6FC;}
	.st7{fill:#FFDA9F;}
	.st8{fill:#FFFFFF;}
	.st9{fill:#FF5751;}
	.st10{fill:#FF908A;}
	.st11{fill:#133260;}
	.st12{fill:#7782BB;}
	.st13{fill:#96A5D6;}
	.st14{fill:#FF5741;}
	.st15{fill:#43527A;}
	.st16{fill:#5E7296;}
	.st17{fill:none;stroke:#133260;stroke-width:9;stroke-linecap:round;stroke-linejoin:round;stroke-miterlimit:10;}
	.st18{fill:#83D689;}
	.st19{fill:#B5F4B8;}
	.st20{fill:#9BC5FF;}
	.st21{fill:#B8D8FF;}
	.st22{fill:#F24133;}
	.st23{fill:#589FFF;}
	.st24{fill:#7180BC;}
	.st25{fill:#93A3D8;}
	.st26{fill:#FF8103;}
	.st27{fill:#FF9D4D;}
	.st28{fill:#BC8D66;}
	.st29{fill:#CEA282;}
	.st30{fill:#FFDDA1;}
	.st31{fill:#FFF1DC;}
	.st32{fill:#7F6674;}
	.st33{fill:#937A89;}
	.st34{fill:#04398E;}
	.st35{fill:#A6D1FF;}
	.st36{fill:#EAA62D;}
	.st37{fill:#C5DFFF;}
	.st38{fill:#D6A47F;}
	.st39{fill:#99A4D6;}
</style>
<g class="st0" id="Layer_31">
<g class="st1">
<g>
<g>
<ellipse class="st2" cx="256" cy="256" rx="248.1" ry="248.3"/>
<path class="st2" d="M398.8,504.5H113.2c-18.8,0-34.1-15.3-34.1-34.1V41.6c0-18.8,15.3-34.1,34.1-34.1h285.5      c18.8,0,34.1,15.3,34.1,34.1v428.9C432.9,489.3,417.6,504.5,398.8,504.5z"/>
<path class="st2" d="M7.9,399.8V112.2c0-16.4,13.3-29.8,29.8-29.8h436.7c16.4,0,29.8,13.3,29.8,29.8v287.6      c0,16.4-13.3,29.8-29.8,29.8H37.6C21.2,429.6,7.9,416.2,7.9,399.8z"/>
<path class="st2" d="M440.4,469.9H71.6c-16.4,0-29.8-13.3-29.8-29.8V71.9c0-16.4,13.3-29.8,29.8-29.8h368.8      c16.4,0,29.8,13.3,29.8,29.8v368.2C470.2,456.5,456.8,469.9,440.4,469.9z"/>
</g>
<rect class="st3" height="497" transform="matrix(-1.836970e-16 1 -1 -1.836970e-16 512 5.684342e-14)" width="497" x="7.5" y="7.5"/>
</g>
</g>
</g>
<g id="Layer_32">
<g>
<g>
<g>
<g>
<g>
<path class="st28" d="M432.6,467H39.2c-19.2,0-34.7-15.5-34.7-34.7V79.7C4.6,60.5,20.1,45,39.2,45h393.4        c19.2,0,34.7,15.5,34.7,34.7v352.7C467.3,451.5,451.8,467,432.6,467z"/>
<path class="st29" d="M29.8,432.3V79.7C29.8,60.5,45.3,45,64.5,45H39.2C20.1,45,4.6,60.5,4.6,79.7v352.7        c0,19.2,15.5,34.7,34.7,34.7h25.2C45.3,467,29.8,451.5,29.8,432.3z"/>
<path class="st4" d="M168.4,45v179.5c0,11.1,12.7,17.3,21.4,10.5l37.9-29.6c4.8-3.7,11.5-3.7,16.3,0L282,235        c8.7,6.8,21.4,0.6,21.4-10.5V45H168.4z"/>
<g>
<path class="st7" d="M193.7,45h-25.2v179.5c0,11.1,12.7,17.3,21.4,10.5l3.8-3V45z"/>
</g>
</g>
</g>
<path class="st18" d="M503,326.4l-90.2-80.2c-4.6-4.1-11.9-0.8-11.9,5.4v39.9c-101.4,5.7-184.2,77.6-201.6,175.5      c46.8-48.3,119.1-84.4,201.6-89.8v43.7c0,6.2,7.3,9.5,11.9,5.4l90.2-80.2C508.9,340.8,508.9,331.7,503,326.4z"/>
<g>
<path class="st19" d="M503,326.4l-90.2-80.2c-4.6-4.1-11.9-0.8-11.9,5.4v16.5l94.9,84.4l7.2-6.4       C508.9,340.8,508.9,331.7,503,326.4z"/>
</g>
</g>
</g>
<g>
<path class="st11" d="M130.2,374.6H43.4c-2.5,0-4.6,2-4.6,4.6s2,4.6,4.6,4.6h86.8c2.5,0,4.6-2,4.6-4.6S132.7,374.6,130.2,374.6z"/>
<path class="st11" d="M130.2,408.7H43.4c-2.5,0-4.6,2-4.6,4.6c0,2.5,2,4.6,4.6,4.6h86.8c2.5,0,4.6-2,4.6-4.6     C134.7,410.7,132.7,408.7,130.2,408.7z"/>
<path class="st11" d="M506.1,323l-34.2-30.4V79.7c0-21.6-17.6-39.2-39.2-39.2H39.2C17.6,40.4,0,58,0,79.7v352.7     c0,21.6,17.6,39.2,39.2,39.2h393.4c21.6,0,39.2-17.6,39.2-39.2v-52.4l34.2-30.4c3.8-3.4,5.9-8.2,5.9-13.2S509.8,326.4,506.1,323z      M173,49.5h125.9v175c0,3.4-1.8,6.3-4.9,7.8c-3.1,1.5-6.5,1.1-9.2-1l-37.9-29.6c-3.2-2.5-7.1-3.8-11-3.8c-3.9,0-7.7,1.3-11,3.8     L187,231.4c-2.7,2.1-6.1,2.5-9.2,1c-3.1-1.5-4.9-4.4-4.9-7.8V49.5z M39.2,462.5c-16.6,0-30.1-13.5-30.1-30.1V79.7     c0-16.6,13.5-30.1,30.1-30.1h124.6v175c0,6.9,3.8,13,10,16c6.2,3,13.4,2.3,18.8-2l37.9-29.6c3.2-2.5,7.6-2.5,10.7,0l37.9,29.6     c3.2,2.5,7.1,3.8,10.9,3.8c2.7,0,5.3-0.6,7.8-1.8c6.2-3,10-9.1,10-16v-175h124.6c16.6,0,30.1,13.5,30.1,30.1v204.8l-46.9-41.7     c-3.5-3.1-8.3-3.9-12.6-1.9c-4.3,1.9-6.9,6-6.9,10.7v35.7c-100.3,7.5-182,78.8-200.8,175.2H39.2z M462.8,432.3     c0,16.6-13.5,30.1-30.1,30.1H210.4c48.1-45.7,115-74.6,185.9-80.4v38.9c0,4.7,2.7,8.8,6.9,10.7c4.3,1.9,9.1,1.2,12.6-1.9     l46.9-41.7V432.3z M500,342.7l-90.2,80.2c-1.1,1-2.3,0.6-2.8,0.4c-0.5-0.2-1.5-0.9-1.5-2.4v-43.7c0-1.3-0.5-2.5-1.4-3.3     c-0.9-0.9-2.1-1.3-3.4-1.2c-73.4,4.8-143.1,34-193.7,80.6c22.2-88.1,100-151.9,194.2-157.2c2.4-0.1,4.3-2.1,4.3-4.5v-39.9     c0-1.5,1.1-2.2,1.5-2.4c0.2-0.1,0.6-0.2,1.1-0.2c0.5,0,1.1,0.2,1.7,0.7l90.2,80.2c1.9,1.7,2.9,3.9,2.9,6.4     C502.9,338.7,501.9,341,500,342.7z"/>
</g>
</g>
</g>
</svg>